<svg xmlns="http://www.w3.org/2000/svg" id="bd9e156c-4ae5-43bd-909a-1d43618968d1" data-name="Layer 1" width="550" height="570" viewBox="0 0 550 570"><path d="M169.85872,669.30137V158.53494a8.39155,8.39155,0,0,1,8.38238-8.38238H646.5368a8.39155,8.39155,0,0,1,8.38238,8.38238V669.30137a8.39155,8.39155,0,0,1-8.38238,8.38238H178.2411A8.39155,8.39155,0,0,1,169.85872,669.30137Zm8.38238-515.79586a5.03493,5.03493,0,0,0-5.02943,5.02943V669.30137a5.03493,5.03493,0,0,0,5.02943,5.02943H646.5368a5.03493,5.03493,0,0,0,5.02943-5.02943V158.53494a5.03493,5.03493,0,0,0-5.02943-5.02943Z" transform="translate(-169.85872 -119.10383)" fill="#e6e6e6"/><path id="feda1070-6288-4949-b833-330f4749d65f" data-name="Path 40" d="M495.66661,202.12148a6.64647,6.64647,0,0,1,0,13.29115H329.04082a6.64647,6.64647,0,1,1-.21822-13.29115q.10911-.00186.21822,0Z" transform="translate(-169.85872 -119.10383)" fill="#3f3d56"/><path d="M291.25419,200.271a1.30766,1.30766,0,0,1,0,1.8494l-5.61377,5.61382h13.843a1.30772,1.30772,0,1,1,0,2.61543h-13.843l5.61377,5.61382a1.30771,1.30771,0,1,1-1.84936,1.8494l-7.84623-7.84623a1.30774,1.30774,0,0,1,0-1.84941l7.84623-7.84623A1.30769,1.30769,0,0,1,291.25419,200.271Z" transform="translate(-169.85872 -119.10383)" fill="#e6e6e6"/><path d="M533.52371,200.271a1.30766,1.30766,0,0,0,0,1.8494l5.61377,5.61382h-13.843a1.30772,1.30772,0,1,0,0,2.61543h13.843l-5.61377,5.61382a1.30771,1.30771,0,1,0,1.84936,1.8494l7.84623-7.84623a1.30774,1.30774,0,0,0,0-1.84941l-7.84623-7.84623A1.30769,1.30769,0,0,0,533.52371,200.271Z" transform="translate(-169.85872 -119.10383)" fill="#e6e6e6"/><path d="M319.79668,588.10058a23.83563,23.83563,0,0,0,0,47.67127H504.98122a23.83563,23.83563,0,0,0,0-47.67127Z" transform="translate(-169.85872 -119.10383)" fill="#e6e6e6"/><path d="M608.96227,157.40849a38.30467,38.30467,0,1,1,38.30466,38.30467A38.348,38.348,0,0,1,608.96227,157.40849Z" transform="translate(-169.85872 -119.10383)" fill="#1376ff"/><path d="M632.1529,153.63h11.33547V142.29446a3.77857,3.77857,0,1,1,7.55713,0V153.63h11.33558a3.77851,3.77851,0,0,1,0,7.557H651.0455v11.33558a3.77857,3.77857,0,0,1-7.55713,0V161.18706H632.1529a3.77851,3.77851,0,1,1,0-7.557Z" transform="translate(-169.85872 -119.10383)" fill="#fff"/><rect x="257.81285" y="393.55492" width="353.44729" height="2.23518" transform="translate(-321.57903 245.71371) rotate(-39.33239)" fill="#e6e6e6"/><rect x="433.419" y="218.15297" width="2.235" height="354.15673" transform="translate(-316.67736 360.12744) rotate(-50.50975)" fill="#e6e6e6"/><path d="M293.35914,502.21257V286.506a7.83269,7.83269,0,0,1,7.82355-7.82355h266.0009a7.83234,7.83234,0,0,1,7.82356,7.82355V502.21257a7.8327,7.8327,0,0,1-7.82356,7.82356H301.18269A7.833,7.833,0,0,1,293.35914,502.21257Zm7.82355-221.29486a5.59483,5.59483,0,0,0-5.58825,5.58825V502.21257a5.59483,5.59483,0,0,0,5.58825,5.58826h266.0009a5.59483,5.59483,0,0,0,5.58825-5.58826V286.506a5.59483,5.59483,0,0,0-5.58825-5.58825Z" transform="translate(-169.85872 -119.10383)" fill="#3f3d56"/><path d="M249.77075,541.33035V325.62374a7.8327,7.8327,0,0,1,7.82356-7.82355h266.0009a7.83269,7.83269,0,0,1,7.82355,7.82355V541.33035a7.833,7.833,0,0,1-7.82355,7.82356H257.59431A7.83305,7.83305,0,0,1,249.77075,541.33035Z" transform="translate(-169.85872 -119.10383)" fill="#1376ff"/><path d="M360.24709,496.06538H496.04776a2.76831,2.76831,0,0,0,.50748-.04021L432.32779,384.774a4.497,4.497,0,0,0-7.8281,0L381.395,459.43216l-2.06506,3.5724Z" transform="translate(-169.85872 -119.10383)" fill="#fff"/><polygon points="190.389 376.961 236.754 376.961 213.993 343.901 212.355 341.519 211.536 340.328 209.471 343.901 190.389 376.961" opacity="0.2" style="isolation:isolate"/><path d="M284.63427,496.06538H402.0907l-22.76076-33.06084-1.638-2.3816-29.6593-43.08461c-1.94445-2.82373-6.62222-2.99958-8.90833-.53258a5.3605,5.3605,0,0,0-.42711.53258Z" transform="translate(-169.85872 -119.10383)" fill="#fff"/><circle cx="203.30104" cy="271.90237" r="20.11771" fill="#fff"/><rect x="492.30098" y="333.4473" width="24.58832" height="24.58832" transform="translate(839.33157 572.37909) rotate(-180)" fill="#3f3d56"/></svg>